<svg xmlns="http://www.w3.org/2000/svg" viewBox="0 0 64 64" fill="none" stroke="currentColor" stroke-width="1.25" stroke-linecap="round" stroke-linejoin="round">
  <path d="M32 6 C 20 10, 14 22, 18 34 C 22 46, 30 52, 32 58 C 34 52, 42 46, 46 34 C 50 22, 44 10, 32 6 Z" />
  <path d="M32 14 C 26 18, 24 24, 26 30 C 28 36, 32 40, 32 46 C 32 40, 36 36, 38 30 C 40 24, 38 18, 32 14 Z" fill="currentColor" fill-opacity="0.12" />
  <circle cx="28" cy="24" r="1.25" fill="currentColor" />
  <circle cx="36" cy="24" r="1.25" fill="currentColor" />
  <path d="M26 30 C 28 32, 36 32, 38 30" />
  <path d="M18 34 C 12 36, 8 42, 10 48" />
  <path d="M46 34 C 52 36, 56 42, 54 48" />
</svg>
